{"asset":{"version":"2.0","generator":"babylon.js glTF exporter for 3ds max 2015 v1.4.0"},"scene":0,"scenes":[{"nodes":[0,1,2,3,4,5],"extensions":{}}],"nodes":[{"mesh":0,"translation":[-0.0214164369,0.0,-0.2387075],"rotation":[0.0,0.04361939,0.0,0.999048233],"scale":[1.0,1.0,1.0],"name":"Cylinder001"},{"mesh":1,"translation":[-1.20963906E-09,1.94991636,-1.38262379E-08],"rotation":[0.7064338,0.03084356,-0.0308435615,0.7064338],"scale":[1.0,1.0,1.0],"name":"Cylinder004"},{"mesh":2,"translation":[0.263971776,0.726716757,2.99340725],"rotation":[0.7035603,0.0707315058,-0.07073151,0.703560233],"scale":[1.14015841,1.0,1.19937575],"name":"Plane003"},{"mesh":3,"translation":[0.263971776,0.726716757,2.99340725],"rotation":[0.7070894,-0.00496002939,0.00496003,0.7070893],"scale":[1.14015841,1.0,1.19937575],"name":"Object001"},{"mesh":4,"translation":[-1.20963906E-09,1.94991636,-1.38262379E-08],"rotation":[0.7064338,0.0308435559,-0.03084356,0.7064338],"scale":[1.0,1.0,1.0],"name":"Object013"},{"translation":[0.0,0.0,0.0],"rotation":[0.0,0.0,0.0,1.0],"scale":[1.0,1.0,1.0],"name":"Default light"}],"meshes":[{"primitives":[{"attributes":{"POSITION":1,"NORMAL":2,"TEXCOORD_0":3},"indices":0,"mode":4,"material":0}],"name":"Cylinder001"},{"primitives":[{"attributes":{"POSITION":5,"NORMAL":6,"TEXCOORD_0":7},"indices":4,"mode":4,"material":0}],"name":"Cylinder004"},{"primitives":[{"attributes":{"POSITION":9,"NORMAL":10,"TEXCOORD_0":11},"indices":8,"mode":4,"material":0}],"name":"Plane003"},{"primitives":[{"attributes":{"POSITION":13,"NORMAL":14,"TEXCOORD_0":15},"indices":12,"mode":4,"material":0}],"name":"Object001"},{"primitives":[{"attributes":{"POSITION":17,"NORMAL":18,"TEXCOORD_0":19},"indices":16,"mode":4,"material":0}],"name":"Object013"}],"accessors":[{"bufferView":0,"componentType":5123,"count":2466,"type":"SCALAR","name":"accessorIndices"},{"bufferView":1,"componentType":5126,"count":2466,"max":[3.541052,4.071108,3.59406543],"min":[-3.54100871,-0.106392756,-3.50804973],"type":"VEC3","name":"accessorPositions"},{"bufferView":1,"byteOffset":29592,"componentType":5126,"count":2466,"type":"VEC3","name":"accessorNormals"},{"bufferView":2,"componentType":5126,"count":2466,"type":"VEC2","name":"accessorUVs"},{"bufferView":0,"byteOffset":4932,"componentType":5123,"count":162,"type":"SCALAR","name":"accessorIndices"},{"bufferView":1,"byteOffset":59184,"componentType":5126,"count":162,"max":[0.6848743,3.35690832,0.662719548],"min":[-0.6610124,3.2930994,-0.6627198],"type":"VEC3","name":"accessorPositions"},{"bufferView":1,"byteOffset":61128,"componentType":5126,"count":162,"type":"VEC3","name":"accessorNormals"},{"bufferView":2,"byteOffset":19728,"componentType":5126,"count":162,"type":"VEC2","name":"accessorUVs"},{"bufferView":0,"byteOffset":5256,"componentType":5123,"count":204,"type":"SCALAR","name":"accessorIndices"},{"bufferView":1,"byteOffset":63072,"componentType":5126,"count":204,"max":[0.4261492,0.0,0.6152957],"min":[-0.0756399557,-0.04318031,-0.6152957],"type":"VEC3","name":"accessorPositions"},{"bufferView":1,"byteOffset":65520,"componentType":5126,"count":204,"type":"VEC3","name":"accessorNormals"},{"bufferView":2,"byteOffset":21024,"componentType":5126,"count":204,"type":"VEC2","name":"accessorUVs"},{"bufferView":0,"byteOffset":5664,"componentType":5123,"count":216,"type":"SCALAR","name":"accessorIndices"},{"bufferView":1,"byteOffset":67968,"componentType":5126,"count":216,"max":[0.06851854,1.93786619E-07,0.615295649],"min":[-0.4261492,-0.0431801155,-0.615295649],"type":"VEC3","name":"accessorPositions"},{"bufferView":1,"byteOffset":70560,"componentType":5126,"count":216,"type":"VEC3","name":"accessorNormals"},{"bufferView":2,"byteOffset":22656,"componentType":5126,"count":216,"type":"VEC2","name":"accessorUVs"},{"bufferView":0,"byteOffset":6096,"componentType":5123,"count":54,"type":"SCALAR","name":"accessorIndices"},{"bufferView":1,"byteOffset":73152,"componentType":5126,"count":54,"max":[0.6848741,3.35690832,0.662719548],"min":[-0.6610124,3.35690784,-0.6627198],"type":"VEC3","name":"accessorPositions"},{"bufferView":1,"byteOffset":73800,"componentType":5126,"count":54,"type":"VEC3","name":"accessorNormals"},{"bufferView":2,"byteOffset":24384,"componentType":5126,"count":54,"type":"VEC2","name":"accessorUVs"}],"bufferViews":[{"buffer":0,"byteLength":6204,"name":"bufferViewScalar"},{"buffer":0,"byteOffset":6204,"byteLength":74448,"byteStride":12,"name":"bufferViewFloatVec3"},{"buffer":0,"byteOffset":80652,"byteLength":24816,"byteStride":8,"name":"bufferViewFloatVec2"}],"buffers":[{"uri":"Location.bin","byteLength":105468}],"materials":[{"pbrMetallicRoughness":{"baseColorFactor":[0.335294127,0.3647059,0.470588267,1.0],"metallicFactor":0.0,"roughnessFactor":0.450053632},"emissiveFactor":[0.0,0.0,0.0],"alphaMode":"OPAQUE","name":"03 - Default"}]}