{"asset":{"version":"2.0","generator":"babylon.js glTF exporter for 3ds max 2015 v1.4.0"},"scene":0,"scenes":[{"nodes":[0,1,2],"extensions":{}}],"nodes":[{"mesh":0,"translation":[-0.0214164369,0.0,-0.2387075],"rotation":[0.0,0.04361939,0.0,0.999048233],"scale":[1.0,1.0,1.0],"name":"Cylinder001"},{"mesh":1,"translation":[-1.20963906E-09,1.94991636,-1.38262379E-08],"rotation":[0.7064338,0.03084356,-0.0308435615,0.7064338],"scale":[1.0,1.0,1.0],"name":"Cylinder004"},{"translation":[0.0,0.0,0.0],"rotation":[0.0,0.0,0.0,1.0],"scale":[1.0,1.0,1.0],"name":"Default light"}],"meshes":[{"primitives":[{"attributes":{"POSITION":1,"NORMAL":2,"TEXCOORD_0":3},"indices":0,"mode":4,"material":0}],"name":"Cylinder001"},{"primitives":[{"attributes":{"POSITION":5,"NORMAL":6,"TEXCOORD_0":7},"indices":4,"mode":4,"material":0}],"name":"Cylinder004"}],"accessors":[{"bufferView":0,"componentType":5123,"count":2466,"type":"SCALAR","name":"accessorIndices"},{"bufferView":1,"componentType":5126,"count":2466,"max":[3.541052,4.071108,3.59406543],"min":[-3.54100871,-0.106392756,-3.50804973],"type":"VEC3","name":"accessorPositions"},{"bufferView":1,"byteOffset":29592,"componentType":5126,"count":2466,"type":"VEC3","name":"accessorNormals"},{"bufferView":2,"componentType":5126,"count":2466,"type":"VEC2","name":"accessorUVs"},{"bufferView":0,"byteOffset":4932,"componentType":5123,"count":162,"type":"SCALAR","name":"accessorIndices"},{"bufferView":1,"byteOffset":59184,"componentType":5126,"count":162,"max":[0.6848743,3.35690832,0.662719548],"min":[-0.6610124,3.2930994,-0.6627198],"type":"VEC3","name":"accessorPositions"},{"bufferView":1,"byteOffset":61128,"componentType":5126,"count":162,"type":"VEC3","name":"accessorNormals"},{"bufferView":2,"byteOffset":19728,"componentType":5126,"count":162,"type":"VEC2","name":"accessorUVs"}],"bufferViews":[{"buffer":0,"byteLength":5256,"name":"bufferViewScalar"},{"buffer":0,"byteOffset":5256,"byteLength":63072,"byteStride":12,"name":"bufferViewFloatVec3"},{"buffer":0,"byteOffset":68328,"byteLength":21024,"byteStride":8,"name":"bufferViewFloatVec2"}],"buffers":[{"uri":"Location.bin","byteLength":89352}],"materials":[{"pbrMetallicRoughness":{"baseColorFactor":[0.5,0.5,0.5,1.0],"baseColorTexture":{"index":0,"texCoord":0},"metallicFactor":0.0,"roughnessFactor":0.450053632},"emissiveFactor":[0.0,0.0,0.0],"alphaMode":"BLEND","name":"Material #0"}],"textures":[{"sampler":0,"source":0,"name":"03 - Default_Base_Color.png"}],"images":[{"uri":"03%20-%20Default_Base_Color.png"}],"samplers":[{"magFilter":9729,"minFilter":9987,"wrapS":10497,"wrapT":10497}]}