{"asset":{"version":"2.0","generator":"babylon.js glTF exporter for 3ds max 2015 v1.4.0"},"scene":0,"scenes":[{"nodes":[0,1,2,3,4,5,6,7,8,9,10,11,12],"extensions":{}}],"nodes":[{"mesh":0,"translation":[-0.105295569,0.6524891,-2.39072132],"rotation":[0.7071068,0.0,0.0,0.7071067],"scale":[1.336204,0.3921458,1.336204],"name":"Box002"},{"mesh":1,"translation":[1.29978263,2.70678735,-1.27233219],"rotation":[0.0,-0.382683426,0.0,0.923879564],"scale":[1.13166988,1.0,1.0],"name":"Plane001"},{"mesh":2,"translation":[1.50771749,0.0532583781,-1.47124779],"rotation":[0.0,-0.258819073,0.0,0.9659259],"scale":[1.56074631,2.185589,2.37384987],"name":"Box003"},{"mesh":3,"translation":[2.59356928,0.0,-0.1008689],"rotation":[0.0,0.0465015024,0.0,0.998918235],"scale":[0.9874564,1.10965109,0.807946563],"name":"Box004"},{"mesh":4,"translation":[0.762818635,0.4293187,-2.06818032],"rotation":[0.0,0.0,0.0,1.0],"scale":[1.0,1.0,1.0],"name":"Line002"},{"mesh":5,"translation":[-0.7862833,1.34707916,2.28902125],"rotation":[-0.241844773,-0.664463043,0.6644631,-0.241844773],"scale":[1.0,1.0,1.0],"name":"Line010"},{"mesh":6,"translation":[-1.71609771,0.0393105373,-2.018473],"rotation":[0.0,-0.0436193831,0.0,0.999048233],"scale":[1.16163909,1.16163909,1.16163909],"name":"Object002"},{"mesh":7,"translation":[-1.337365,0.0,2.025321],"rotation":[0.0,-0.922893763,0.0,0.385054737],"scale":[0.9874563,1.10965109,0.807946563],"name":"Box006"},{"mesh":8,"translation":[-2.16453385,0.0393105373,-1.29190326],"rotation":[0.0,-0.0436193831,0.0,0.999048233],"scale":[1.16163909,1.16163909,1.16163909],"name":"Object004"},{"mesh":9,"translation":[-2.358981,0.0393105373,-0.4863113],"rotation":[0.0,0.08715576,0.0,0.9961947],"scale":[1.16163909,1.16163909,1.16163909],"name":"Object006"},{"mesh":10,"translation":[-2.30971742,0.0393105373,0.351521],"rotation":[0.0,0.130526185,0.0,0.9914449],"scale":[1.16163909,1.16163909,1.16163909],"name":"Object008"},{"mesh":11,"translation":[-2.01405048,0.0393105373,1.13829494],"rotation":[0.0,0.08715576,0.0,0.9961947],"scale":[1.16163909,1.16163909,1.16163909],"name":"Object010"},{"translation":[0.0,0.0,0.0],"rotation":[0.0,0.0,0.0,1.0],"scale":[1.0,1.0,1.0],"name":"Default light"}],"meshes":[{"primitives":[{"attributes":{"POSITION":1,"NORMAL":2,"TEXCOORD_0":3},"indices":0,"mode":4,"material":0}],"name":"Box002"},{"primitives":[{"attributes":{"POSITION":5,"NORMAL":6,"TEXCOORD_0":7},"indices":4,"mode":4,"material":0}],"name":"Plane001"},{"primitives":[{"attributes":{"POSITION":9,"NORMAL":10,"TEXCOORD_0":11},"indices":8,"mode":4,"material":0}],"name":"Box003"},{"primitives":[{"attributes":{"POSITION":13,"NORMAL":14,"TEXCOORD_0":15},"indices":12,"mode":4,"material":0}],"name":"Box004"},{"primitives":[{"attributes":{"POSITION":17,"NORMAL":18,"TEXCOORD_0":19},"indices":16,"mode":4,"material":0}],"name":"Line002"},{"primitives":[{"attributes":{"POSITION":21,"NORMAL":22,"TEXCOORD_0":23},"indices":20,"mode":4,"material":0}],"name":"Line010"},{"primitives":[{"attributes":{"POSITION":25,"NORMAL":26,"TEXCOORD_0":27},"indices":24,"mode":4,"material":0}],"name":"Object002"},{"primitives":[{"attributes":{"POSITION":29,"NORMAL":30,"TEXCOORD_0":31},"indices":28,"mode":4,"material":0}],"name":"Box006"},{"primitives":[{"attributes":{"POSITION":33,"NORMAL":34,"TEXCOORD_0":35},"indices":32,"mode":4,"material":0}],"name":"Object004"},{"primitives":[{"attributes":{"POSITION":37,"NORMAL":38,"TEXCOORD_0":39},"indices":36,"mode":4,"material":0}],"name":"Object006"},{"primitives":[{"attributes":{"POSITION":41,"NORMAL":42,"TEXCOORD_0":43},"indices":40,"mode":4,"material":0}],"name":"Object008"},{"primitives":[{"attributes":{"POSITION":45,"NORMAL":46,"TEXCOORD_0":47},"indices":44,"mode":4,"material":0}],"name":"Object010"}],"accessors":[{"bufferView":0,"componentType":5123,"count":732,"type":"SCALAR","name":"accessorIndices"},{"bufferView":1,"componentType":5126,"count":732,"max":[0.3556,0.862419844,0.4445],"min":[-0.3556,0.0,-0.444500029],"type":"VEC3","name":"accessorPositions"},{"bufferView":1,"byteOffset":8784,"componentType":5126,"count":732,"type":"VEC3","name":"accessorNormals"},{"bufferView":2,"componentType":5126,"count":732,"type":"VEC2","name":"accessorUVs"},{"bufferView":0,"byteOffset":1464,"componentType":5123,"count":1788,"type":"SCALAR","name":"accessorIndices"},{"bufferView":1,"byteOffset":17568,"componentType":5126,"count":1788,"max":[0.663988054,0.698364735,0.581323445],"min":[-0.7148215,-2.75774026,-1.31134689],"type":"VEC3","name":"accessorPositions"},{"bufferView":1,"byteOffset":39024,"componentType":5126,"count":1788,"type":"VEC3","name":"accessorNormals"},{"bufferView":2,"byteOffset":5856,"componentType":5126,"count":1788,"type":"VEC2","name":"accessorUVs"},{"bufferView":0,"byteOffset":5040,"componentType":5123,"count":108,"type":"SCALAR","name":"accessorIndices"},{"bufferView":1,"byteOffset":60480,"componentType":5126,"count":108,"max":[0.3810001,0.230374143,0.0762000456],"min":[-0.3810001,0.0,-0.0762],"type":"VEC3","name":"accessorPositions"},{"bufferView":1,"byteOffset":61776,"componentType":5126,"count":108,"type":"VEC3","name":"accessorNormals"},{"bufferView":2,"byteOffset":20160,"componentType":5126,"count":108,"type":"VEC2","name":"accessorUVs"},{"bufferView":0,"byteOffset":5256,"componentType":5123,"count":42,"type":"SCALAR","name":"accessorIndices"},{"bufferView":1,"byteOffset":63072,"componentType":5126,"count":42,"max":[0.242587522,1.70234919,0.613077343],"min":[-0.129431829,-0.0033330326,-0.559722245],"type":"VEC3","name":"accessorPositions"},{"bufferView":1,"byteOffset":63576,"componentType":5126,"count":42,"type":"VEC3","name":"accessorNormals"},{"bufferView":2,"byteOffset":21024,"componentType":5126,"count":42,"type":"VEC2","name":"accessorUVs"},{"bufferView":0,"byteOffset":5340,"componentType":5123,"count":2424,"type":"SCALAR","name":"accessorIndices"},{"bufferView":1,"byteOffset":64080,"componentType":5126,"count":2424,"max":[1.86402416,1.31655622,1.59429049],"min":[-0.421922535,-0.406144321,-0.2453699],"type":"VEC3","name":"accessorPositions"},{"bufferView":1,"byteOffset":93168,"componentType":5126,"count":2424,"type":"VEC3","name":"accessorNormals"},{"bufferView":2,"byteOffset":21360,"componentType":5126,"count":2424,"type":"VEC2","name":"accessorUVs"},{"bufferView":0,"byteOffset":10188,"componentType":5123,"count":4068,"type":"SCALAR","name":"accessorIndices"},{"bufferView":1,"byteOffset":122256,"componentType":5126,"count":4068,"max":[3.97836947,2.711968,1.31433547],"min":[0.416339219,-0.7128499,-1.33019543],"type":"VEC3","name":"accessorPositions"},{"bufferView":1,"byteOffset":171072,"componentType":5126,"count":4068,"type":"VEC3","name":"accessorNormals"},{"bufferView":2,"byteOffset":40752,"componentType":5126,"count":4068,"type":"VEC2","name":"accessorUVs"},{"bufferView":0,"byteOffset":18324,"componentType":5123,"count":900,"type":"SCALAR","name":"accessorIndices"},{"bufferView":1,"byteOffset":219888,"componentType":5126,"count":900,"max":[0.2205062,1.74425244,0.322004557],"min":[-0.4414091,0.0,-0.339910924],"type":"VEC3","name":"accessorPositions"},{"bufferView":1,"byteOffset":230688,"componentType":5126,"count":900,"type":"VEC3","name":"accessorNormals"},{"bufferView":2,"byteOffset":73296,"componentType":5126,"count":900,"type":"VEC2","name":"accessorUVs"},{"bufferView":0,"byteOffset":20124,"componentType":5123,"count":42,"type":"SCALAR","name":"accessorIndices"},{"bufferView":1,"byteOffset":241488,"componentType":5126,"count":42,"max":[0.242587522,1.70234931,0.6130774],"min":[-0.129432023,-0.0033330333,-0.559722245],"type":"VEC3","name":"accessorPositions"},{"bufferView":1,"byteOffset":241992,"componentType":5126,"count":42,"type":"VEC3","name":"accessorNormals"},{"bufferView":2,"byteOffset":80496,"componentType":5126,"count":42,"type":"VEC2","name":"accessorUVs"},{"bufferView":0,"byteOffset":20208,"componentType":5123,"count":900,"type":"SCALAR","name":"accessorIndices"},{"bufferView":1,"byteOffset":242496,"componentType":5126,"count":900,"max":[0.220506117,1.74425244,0.322004557],"min":[-0.4414093,0.0,-0.339910746],"type":"VEC3","name":"accessorPositions"},{"bufferView":1,"byteOffset":253296,"componentType":5126,"count":900,"type":"VEC3","name":"accessorNormals"},{"bufferView":2,"byteOffset":80832,"componentType":5126,"count":900,"type":"VEC2","name":"accessorUVs"},{"bufferView":0,"byteOffset":22008,"componentType":5123,"count":900,"type":"SCALAR","name":"accessorIndices"},{"bufferView":1,"byteOffset":264096,"componentType":5126,"count":900,"max":[0.220506117,1.74425256,0.322004557],"min":[-0.4414093,0.0,-0.339910835],"type":"VEC3","name":"accessorPositions"},{"bufferView":1,"byteOffset":274896,"componentType":5126,"count":900,"type":"VEC3","name":"accessorNormals"},{"bufferView":2,"byteOffset":88032,"componentType":5126,"count":900,"type":"VEC2","name":"accessorUVs"},{"bufferView":0,"byteOffset":23808,"componentType":5123,"count":900,"type":"SCALAR","name":"accessorIndices"},{"bufferView":1,"byteOffset":285696,"componentType":5126,"count":900,"max":[0.220506117,1.74425256,0.322004557],"min":[-0.4414093,0.0,-0.339910924],"type":"VEC3","name":"accessorPositions"},{"bufferView":1,"byteOffset":296496,"componentType":5126,"count":900,"type":"VEC3","name":"accessorNormals"},{"bufferView":2,"byteOffset":95232,"componentType":5126,"count":900,"type":"VEC2","name":"accessorUVs"},{"bufferView":0,"byteOffset":25608,"componentType":5123,"count":900,"type":"SCALAR","name":"accessorIndices"},{"bufferView":1,"byteOffset":307296,"componentType":5126,"count":900,"max":[0.220506117,1.74425256,0.322004557],"min":[-0.4414093,0.0,-0.339910924],"type":"VEC3","name":"accessorPositions"},{"bufferView":1,"byteOffset":318096,"componentType":5126,"count":900,"type":"VEC3","name":"accessorNormals"},{"bufferView":2,"byteOffset":102432,"componentType":5126,"count":900,"type":"VEC2","name":"accessorUVs"}],"bufferViews":[{"buffer":0,"byteLength":27408,"name":"bufferViewScalar"},{"buffer":0,"byteOffset":27408,"byteLength":328896,"byteStride":12,"name":"bufferViewFloatVec3"},{"buffer":0,"byteOffset":356304,"byteLength":109632,"byteStride":8,"name":"bufferViewFloatVec2"}],"buffers":[{"uri":"objects.bin","byteLength":465936}],"materials":[{"pbrMetallicRoughness":{"baseColorFactor":[0.294117659,0.294117659,0.294117659,1.0],"metallicFactor":0.0,"roughnessFactor":0.450053632},"emissiveFactor":[0.0,0.0,0.0],"alphaMode":"OPAQUE","name":"01 - Default"}]}